<svg version="1.0" xmlns="http://www.w3.org/2000/svg"  width="1580.000000pt" height="1136.000000pt" viewBox="0 0 1580.000000 1136.000000"  preserveAspectRatio="xMidYMid meet"> <g transform="translate(0.000000,1136.000000) scale(0.100000,-0.100000)" fill="#000000" stroke="none"> <path d="M400 11342 c0 -11 -13 -38 -29 -62 -25 -38 -28 -49 -26 -117 2 -67 -1 -78 -22 -101 -12 -14 -23 -33 -23 -43 0 -11 -15 -36 -34 -56 -27 -31 -34 -49 -39 -97 -3 -34 -13 -66 -23 -77 -22 -24 -24 -49 -24 -239 1 -144 -1 -156 -19 -172 -12 -10 -18 -24 -15 -33 4 -9 -2 -26 -13 -38 -28 -30 -35 -88 -39 -342 -3 -188 -6 -222 -19 -232 -15 -10 -16 -47 -15 -315 0 -166 1 -733 2 -1258 l0 -955 24 -18 c38 -30 37 -298 -1 -323 l-25 -16 0 -622 c0 -609 0 -622 20 -639 31 -26 31 -298 0 -324 -34 -30 -30 -294 5 -317 l25 -16 0 -170 0 -170 -25 -6 -25 -6 0 -448 0 -448 25 -16 25 -17 0 -1106 c-1 -941 1 -1108 13 -1114 20 -12 16 -231 -5 -252 -11 -12 -14 -37 -12 -109 2 -51 4 -105 4 -120 0 -15 5 -30 10 -33 6 -4 10 -42 10 -85 0 -87 16 -177 37 -201 7 -8 13 -27 13 -40 0 -14 9 -33 21 -42 15 -13 19 -25 15 -43 -6 -24 8 -63 28 -76 5 -4 11 -22 13 -40 5 -71 11 -100 22 -111 6 -6 11 -24 11 -39 0 -16 10 -38 23 -50 22 -23 26 -41 30 -133 l2 -50 54 -3 53 -3 -5 28 c-18 88 -26 115 -39 131 -9 9 -13 23 -11 30 3 8 -4 20 -15 28 -11 8 -23 31 -27 52 -3 22 -13 52 -22 68 -17 31 -32 93 -39 159 -9 91 -16 113 -38 123 -20 9 -21 18 -24 118 -2 72 -10 138 -25 194 -20 80 -21 107 -21 450 0 201 2 1866 4 3700 3 1834 1 3650 -3 4035 -14 1219 -15 1094 10 1142 19 35 23 56 22 135 -2 158 16 241 71 313 4 6 12 33 19 60 7 28 21 74 32 103 10 29 19 68 19 87 0 19 5 37 10 40 6 3 10 17 10 29 0 28 16 69 81 202 63 131 63 134 -6 134 -47 0 -55 -3 -55 -18z"/> <path d="M15420 11345 c0 -33 42 -123 70 -150 33 -31 55 -94 46 -130 -4 -14 0 -28 9 -35 8 -7 15 -18 15 -25 0 -6 11 -34 25 -61 14 -27 25 -60 25 -74 0 -14 7 -34 15 -44 8 -11 15 -41 15 -67 0 -26 4 -50 9 -53 9 -6 17 -75 26 -231 3 -44 9 -100 14 -125 42 -217 43 -231 37 -460 -4 -124 -7 -236 -7 -250 0 -14 -1 -230 -1 -480 0 -250 0 -534 0 -630 -1 -543 -1 -1199 0 -1835 0 -396 1 -1336 0 -2090 -1 -753 -1 -1386 0 -1405 0 -19 0 -219 -1 -445 -1 -225 -1 -502 -1 -615 9 -1131 8 -1171 -27 -1310 -6 -25 -15 -109 -20 -188 -7 -110 -14 -151 -29 -180 -11 -20 -20 -47 -20 -59 0 -13 -9 -40 -20 -60 -11 -21 -20 -43 -20 -49 0 -7 -7 -25 -15 -40 -8 -16 -15 -46 -15 -66 0 -27 -6 -40 -20 -48 -14 -7 -20 -20 -18 -38 1 -15 -6 -41 -15 -59 -24 -44 -24 -44 39 -41 71 4 100 33 64 66 -23 21 -19 48 11 69 9 7 19 30 23 51 3 22 12 45 20 51 8 7 18 26 21 42 4 16 10 29 15 29 4 0 10 22 14 50 4 27 13 56 21 64 8 8 15 25 15 38 0 29 17 48 42 48 17 0 18 199 18 5180 0 4137 -3 5180 -12 5180 -24 0 -36 -15 -40 -49 -4 -43 -25 -52 -34 -14 -4 15 -16 40 -27 55 -15 20 -18 36 -14 62 4 27 -1 47 -19 83 -14 25 -28 69 -31 97 -3 28 -12 64 -20 79 -8 16 -12 35 -9 42 3 8 -6 35 -20 60 -13 25 -24 53 -24 61 0 11 -15 14 -65 14 -50 0 -65 -3 -65 -15z"/> <path d="M6665 8564 c-126 -7 -279 -18 -340 -23 -287 -28 -463 -49 -473 -55 -6 -4 -51 -11 -99 -17 -48 -5 -103 -14 -121 -20 -18 -6 -72 -17 -120 -24 -120 -19 -237 -43 -297 -60 -27 -8 -79 -20 -115 -26 -36 -6 -105 -22 -155 -35 -49 -14 -109 -29 -133 -34 -23 -5 -52 -15 -64 -21 -12 -6 -44 -17 -72 -24 -28 -7 -82 -25 -121 -40 -38 -14 -88 -32 -110 -40 -22 -7 -53 -20 -70 -29 -16 -9 -34 -16 -40 -16 -13 0 -203 -76 -237 -95 -14 -8 -32 -15 -38 -15 -7 0 -56 -21 -109 -46 -53 -25 -116 -55 -141 -66 -78 -35 -700 -347 -825 -414 -66 -35 -131 -69 -145 -74 -14 -6 -43 -20 -66 -31 -22 -10 -47 -19 -55 -19 -8 0 -22 -7 -33 -15 -10 -8 -39 -17 -65 -20 -25 -4 -62 -13 -81 -20 -39 -16 -222 -50 -315 -60 -33 -3 -89 -12 -125 -20 -36 -7 -96 -17 -133 -20 -236 -25 -366 -131 -383 -312 -9 -96 -5 -99 155 -95 128 4 298 -20 396 -54 23 -8 48 -14 57 -14 10 0 57 -13 105 -29 257 -86 372 -149 388 -213 8 -31 -22 -49 -150 -94 -240 -85 -868 -33 -956 79 l-17 20 -24 -25 c-19 -18 -27 -40 -32 -84 -8 -61 -63 -387 -71 -414 -2 -8 -9 -51 -15 -95 -5 -44 -15 -114 -20 -155 -16 -118 -29 -573 -19 -687 35 -409 309 -601 1002 -703 106 -16 130 8 101 98 -33 101 -23 417 16 547 32 104 84 245 102 273 18 30 25 34 53 29 34 -6 50 11 121 129 11 19 41 58 66 87 25 29 68 80 96 114 114 136 347 266 619 344 200 58 240 62 483 57 222 -6 288 -17 418 -74 18 -8 37 -14 42 -14 11 0 285 -156 320 -182 63 -48 249 -230 301 -295 56 -70 143 -229 209 -383 48 -111 110 -165 82 -71 -7 21 -12 58 -12 82 -1 24 -7 55 -15 69 -8 14 -14 42 -15 63 0 24 -7 43 -20 54 -11 10 -20 26 -20 36 0 29 -50 119 -94 168 -22 26 -52 63 -66 84 -14 20 -33 46 -42 56 -10 10 -18 24 -18 29 0 17 19 11 30 -10 6 -11 17 -20 25 -20 7 0 23 -13 35 -29 11 -17 29 -33 39 -36 25 -8 93 -99 139 -186 20 -38 45 -84 54 -102 100 -188 169 -688 119 -860 -13 -45 -13 -50 5 -68 20 -19 58 -19 2449 -19 1600 -1 2432 3 2438 9 7 7 6 33 -2 78 -30 168 -5 496 49 656 11 31 20 62 20 68 0 22 84 203 126 274 61 100 105 145 142 145 49 0 77 15 172 94 75 62 247 176 266 176 3 0 32 16 64 34 33 19 75 38 94 41 19 4 37 13 40 21 6 16 78 54 104 54 10 0 52 9 93 20 123 32 315 46 476 32 187 -15 353 -40 380 -58 12 -8 29 -14 36 -14 19 0 131 -53 192 -92 208 -130 282 -194 385 -331 41 -55 103 -97 143 -97 8 0 24 -15 35 -32 12 -18 34 -52 50 -74 17 -23 33 -52 37 -65 4 -13 11 -29 16 -34 20 -26 62 -166 85 -287 32 -163 31 -429 -2 -526 -33 -100 -31 -100 351 -91 660 17 779 55 853 272 43 128 42 724 -2 922 -8 33 -17 83 -20 110 -14 107 -70 312 -103 379 -128 254 -387 439 -853 609 -30 11 -71 25 -90 33 -19 7 -59 18 -89 24 -30 6 -59 14 -65 19 -6 5 -31 11 -56 15 -25 3 -65 13 -90 21 -44 13 -90 25 -270 66 -83 19 -143 31 -305 64 -44 8 -100 20 -125 26 -25 7 -79 17 -121 24 -42 7 -86 18 -97 24 -11 6 -33 11 -49 11 -15 0 -57 7 -93 15 -36 8 -109 22 -163 30 -54 8 -103 17 -108 20 -5 4 -37 10 -71 16 -35 5 -92 16 -128 23 -75 17 -252 53 -325 66 -27 5 -61 13 -75 18 -14 5 -50 13 -80 16 -30 4 -71 13 -90 20 -19 8 -73 26 -120 41 -76 23 -147 52 -190 77 -8 4 -22 11 -30 15 -33 14 -178 99 -222 130 -26 18 -50 33 -53 33 -3 0 -87 54 -187 120 -99 66 -183 120 -186 120 -3 0 -30 17 -61 38 -59 39 -175 109 -356 215 -125 73 -302 160 -497 246 -167 72 -306 124 -383 142 -22 5 -56 16 -75 24 -36 14 -121 38 -221 60 -31 6 -61 15 -66 18 -24 15 -366 81 -503 97 -47 6 -128 17 -180 25 -87 14 -157 20 -545 45 -179 11 -369 10 -640 -6z m785 -313 c25 -6 99 -15 165 -21 66 -6 145 -18 175 -25 30 -7 80 -16 110 -20 30 -3 70 -11 89 -17 18 -6 59 -16 90 -23 157 -35 463 -138 549 -185 9 -5 82 -41 162 -80 80 -39 177 -91 215 -115 39 -24 89 -53 113 -65 23 -12 72 -42 108 -66 36 -24 67 -44 70 -44 2 0 35 -20 74 -45 39 -25 72 -45 75 -45 2 0 39 -24 82 -53 97 -67 174 -118 283 -191 47 -31 127 -86 178 -121 51 -36 96 -65 100 -65 5 0 14 -6 20 -12 7 -7 47 -31 90 -53 122 -64 109 -126 -20 -96 -91 20 -327 30 -918 36 -322 3 -650 10 -730 15 -80 5 -422 14 -760 20 -338 6 -729 17 -869 26 -139 8 -364 17 -500 20 -135 3 -334 11 -441 19 -107 8 -337 17 -510 20 -173 3 -373 12 -445 20 -71 8 -218 17 -325 20 -107 4 -247 13 -310 21 -63 7 -152 14 -196 14 -87 0 -208 30 -217 53 -7 20 30 58 133 134 193 142 228 165 390 263 147 89 164 98 190 111 14 7 32 18 40 25 18 14 228 120 315 158 33 15 67 31 76 36 9 5 54 23 100 40 46 18 98 38 114 44 17 7 73 25 125 40 52 15 118 33 145 41 71 21 162 44 215 55 25 5 79 16 120 25 123 25 250 46 335 56 194 21 385 40 445 43 119 7 704 -4 750 -13z m-3830 -956 c8 -9 10 -28 5 -54 -6 -38 -5 -41 22 -47 41 -10 72 -33 89 -65 8 -16 25 -31 39 -35 13 -3 27 -14 30 -24 3 -10 16 -20 28 -22 13 -2 23 -11 25 -23 2 -11 13 -27 24 -36 12 -9 21 -29 22 -45 1 -25 7 -30 49 -42 44 -12 60 -33 37 -47 -22 -13 -8 -25 29 -25 31 0 41 -4 46 -20 4 -14 15 -20 34 -20 16 0 36 -10 48 -24 19 -22 27 -23 86 -19 80 7 128 -1 157 -27 27 -24 158 -20 194 6 39 27 174 19 202 -12 15 -15 31 -23 42 -20 70 19 140 17 156 -5 24 -35 88 -37 120 -2 l24 26 137 -6 c100 -4 142 -10 160 -21 15 -10 46 -16 85 -16 49 0 62 -4 72 -20 8 -12 24 -20 40 -20 18 0 33 -8 44 -25 27 -42 93 -22 77 23 -12 33 17 42 142 42 136 0 189 -12 182 -41 -15 -56 142 -72 197 -20 22 20 32 22 140 20 73 -1 121 3 130 10 30 25 102 25 142 0 31 -19 50 -23 102 -21 45 2 72 -2 88 -13 13 -9 41 -16 62 -17 20 0 45 -8 56 -17 10 -9 32 -16 50 -16 44 0 52 -42 9 -47 -40 -4 -40 -42 0 -46 44 -5 32 -36 -15 -40 -34 -3 -39 -7 -48 -40 -6 -23 -30 -58 -64 -92 -30 -30 -57 -68 -60 -83 -7 -34 -63 -61 -107 -52 -36 8 -55 -28 -38 -71 12 -32 -14 -68 -43 -61 -24 7 -40 -16 -42 -62 -1 -26 -10 -49 -24 -64 -17 -18 -20 -30 -16 -58 5 -32 2 -38 -35 -68 -45 -37 -52 -60 -21 -68 14 -4 20 -14 20 -34 0 -18 -7 -32 -20 -39 -26 -14 -25 -32 1 -48 l21 -14 -26 -27 c-32 -33 -31 -93 1 -116 17 -12 20 -25 21 -80 0 -57 3 -69 22 -82 19 -13 21 -22 16 -54 -5 -33 -3 -42 19 -61 14 -12 25 -32 25 -46 0 -13 7 -30 15 -38 8 -9 15 -26 15 -40 0 -13 8 -33 18 -43 9 -11 23 -27 30 -36 16 -19 32 -11 32 16 0 14 -7 19 -26 19 -23 0 -25 3 -22 38 4 49 40 54 48 7 3 -20 14 -34 33 -43 35 -17 34 -37 -3 -51 -27 -9 -30 -14 -30 -50 0 -40 27 -70 49 -56 20 12 41 -8 39 -36 -2 -20 4 -34 19 -44 38 -27 18 -45 -49 -45 -33 0 -72 -7 -88 -15 -46 -24 -589 -20 -613 4 -6 6 -30 11 -52 11 -32 0 -46 6 -64 26 -12 14 -28 24 -34 21 -60 -22 -77 -9 -77 63 0 16 -5 32 -10 35 -18 11 -40 76 -34 100 4 15 -6 47 -29 92 -28 56 -36 87 -44 167 -9 82 -14 102 -32 115 -11 9 -26 32 -33 51 -6 19 -25 48 -41 64 -31 32 -47 65 -47 100 0 15 -9 27 -25 34 -14 6 -37 29 -52 51 -16 22 -38 44 -51 50 -12 6 -31 30 -42 53 -16 37 -77 105 -210 233 -19 18 -59 43 -88 56 -30 12 -67 38 -85 59 -18 21 -61 53 -97 72 -36 19 -101 53 -145 77 -44 23 -102 48 -130 56 -27 7 -68 20 -90 30 -70 29 -128 47 -185 55 -30 4 -84 13 -120 19 -125 21 -293 30 -370 21 -147 -19 -196 -26 -275 -44 -44 -10 -123 -27 -175 -38 -52 -11 -129 -35 -170 -53 -41 -18 -85 -36 -97 -40 -12 -3 -38 -19 -59 -36 -20 -16 -49 -32 -63 -36 -45 -11 -215 -132 -296 -210 -24 -24 -47 -43 -52 -43 -19 0 -150 -139 -193 -205 -10 -16 -36 -55 -57 -85 -22 -31 -45 -71 -53 -90 -29 -75 -84 -177 -115 -215 -23 -28 -35 -56 -40 -90 -4 -27 -16 -68 -25 -90 -23 -51 -31 -85 -37 -157 -3 -36 -9 -58 -17 -58 -6 0 -32 -20 -56 -45 -61 -62 -107 -63 -169 -4 -40 38 -43 40 -60 25 -26 -24 -84 23 -75 60 5 19 1 26 -21 36 -25 11 -27 16 -22 56 3 29 0 47 -9 57 -36 36 -41 145 -8 169 16 13 17 18 6 33 -32 47 -34 66 -12 120 17 42 19 56 10 73 -7 13 -9 34 -5 49 4 14 8 62 10 106 4 134 13 163 57 207 27 27 37 44 33 57 -9 29 20 44 88 44 38 0 67 5 75 14 9 9 46 13 120 14 59 1 141 3 182 5 41 2 85 3 98 4 12 0 30 9 39 20 10 11 27 20 39 20 15 0 50 28 101 80 61 64 82 80 99 76 24 -6 52 18 34 29 -18 11 -11 26 19 36 34 12 46 35 30 55 -16 19 17 31 42 16 21 -14 36 2 21 21 -19 22 -19 71 0 75 12 2 17 -5 20 -30 6 -67 30 -38 33 42 5 111 -4 142 -43 152 -38 10 -42 35 -7 48 24 9 27 38 8 73 -9 15 -35 6 -40 -13 -6 -21 -33 -24 -40 -4 -2 6 7 26 20 46 l24 35 -36 9 c-35 9 -36 10 -39 61 -3 51 -2 54 44 98 26 25 51 45 56 45 4 0 14 13 22 29 12 23 20 27 41 24 14 -3 25 -1 25 5 0 6 18 13 40 17 22 4 44 14 49 22 4 9 21 17 37 19 15 1 34 10 40 19 7 9 25 18 40 20 15 1 33 10 39 19 7 9 19 16 27 16 24 0 83 27 98 44 7 9 23 16 37 16 13 0 31 7 39 15 9 8 20 15 25 15 5 0 12 -7 15 -15 9 -21 31 -19 44 5 6 11 21 20 34 20 13 0 31 9 41 20 21 24 57 26 75 5z m6938 -330 c6 -14 20 -25 30 -25 9 0 28 -7 40 -16 13 -9 30 -13 38 -10 9 3 25 1 36 -5 11 -6 33 -13 47 -14 68 -9 163 -44 177 -66 3 -5 14 -9 24 -9 10 0 25 -6 32 -13 7 -8 33 -16 57 -20 24 -3 57 -15 72 -26 16 -12 35 -21 44 -21 8 0 23 -9 33 -20 14 -17 24 -19 59 -14 37 5 43 3 58 -20 21 -31 54 -34 78 -6 20 24 60 26 81 4 11 -11 41 -17 98 -20 51 -2 91 -10 106 -20 13 -8 30 -13 38 -10 19 7 183 -18 210 -32 11 -6 29 -11 40 -11 52 1 132 -15 156 -32 32 -22 54 -23 88 -4 39 22 60 19 60 -9 0 -18 8 -27 31 -35 47 -16 52 -14 46 19 -8 39 27 43 45 5 9 -21 16 -25 38 -20 18 4 31 1 40 -10 7 -8 25 -15 41 -15 52 0 115 -22 125 -44 6 -14 19 -21 39 -22 101 -2 105 -3 105 -28 0 -24 23 -56 41 -56 5 0 9 -11 9 -25 0 -18 -5 -25 -20 -25 -24 0 -30 -64 -6 -73 19 -8 26 1 26 35 0 32 33 41 44 12 30 -78 -145 -83 -259 -8 -37 24 -241 94 -305 104 -30 5 -84 14 -120 19 -133 21 -413 10 -540 -22 -36 -9 -92 -21 -125 -28 -62 -12 -157 -45 -233 -79 -23 -11 -53 -20 -66 -20 -13 0 -29 -6 -35 -14 -6 -7 -38 -23 -71 -35 -33 -12 -72 -32 -87 -45 -16 -13 -54 -38 -86 -56 -32 -18 -65 -43 -74 -56 -8 -13 -24 -24 -35 -24 -11 0 -29 -5 -41 -11 -36 -18 -245 -240 -252 -266 -3 -14 -22 -42 -43 -63 -20 -21 -63 -65 -94 -98 -32 -32 -58 -66 -58 -76 0 -9 -11 -42 -25 -72 -14 -30 -29 -73 -34 -94 -5 -22 -18 -48 -30 -58 -17 -14 -41 -125 -41 -194 0 -3 -6 -13 -13 -20 -16 -17 -57 -118 -57 -141 0 -10 -6 -30 -14 -45 -7 -15 -16 -44 -20 -64 -11 -60 -52 -101 -95 -95 -20 2 -46 0 -59 -4 -18 -7 -28 -4 -48 18 -23 25 -27 26 -57 14 -70 -29 -101 -34 -142 -23 l-40 11 1 88 c2 131 0 123 34 123 31 0 34 3 44 51 4 17 17 31 36 39 27 11 30 17 30 57 0 40 3 45 30 54 29 11 30 13 30 71 0 51 3 61 20 65 14 4 20 14 20 36 0 22 9 38 36 61 l36 32 -21 39 c-26 49 -26 66 -1 98 24 30 25 41 5 57 -21 18 -19 50 6 77 l22 22 -21 18 c-20 16 -22 29 -24 143 -3 112 -5 125 -21 128 -15 3 -18 -2 -15 -28 2 -22 -2 -36 -14 -43 -26 -17 -45 5 -31 35 14 33 -4 68 -39 75 -22 4 -28 11 -28 30 0 14 -10 38 -22 54 -68 88 -126 156 -149 176 -14 12 -32 43 -39 68 -13 46 -13 46 -49 41 -42 -7 -52 -2 -69 37 -7 17 -27 34 -49 44 -35 14 -36 16 -18 29 10 8 26 14 34 14 26 0 101 -41 112 -61 14 -27 39 -24 39 5 0 17 -9 29 -27 38 -17 8 -28 21 -28 33 0 19 8 20 169 22 150 3 175 5 214 24 35 18 55 21 104 16 54 -5 62 -3 81 19 11 13 29 24 40 24 29 0 82 36 95 65 7 14 32 35 59 48 29 13 49 30 51 42 2 11 11 28 20 38 14 16 14 19 -7 33 -17 13 -20 19 -10 30 14 17 29 9 29 -17 0 -12 7 -19 18 -19 23 0 62 28 62 44 0 7 9 21 20 31 11 10 20 26 20 35 0 38 42 42 58 5z m-2051 -420 c73 -7 137 -16 142 -20 6 -3 36 -10 68 -16 112 -21 371 -131 433 -184 8 -7 26 -16 40 -20 73 -22 450 -376 450 -423 0 -4 13 -28 28 -53 75 -118 103 -307 66 -439 -8 -30 -21 -79 -28 -107 -7 -29 -26 -70 -42 -90 -16 -21 -36 -50 -44 -65 -24 -42 -157 -195 -197 -225 -20 -16 -51 -43 -70 -60 -18 -18 -39 -33 -45 -33 -5 0 -26 -14 -45 -30 -18 -17 -60 -44 -93 -60 -32 -16 -61 -34 -64 -39 -4 -5 -21 -13 -39 -16 -17 -4 -37 -11 -43 -16 -17 -14 -184 -68 -233 -75 -25 -4 -63 -13 -85 -20 -58 -21 -96 -18 -96 5 0 20 8 24 66 36 19 4 34 14 37 25 3 10 22 27 43 37 26 12 40 26 42 41 2 13 19 33 41 47 21 13 41 35 45 48 4 16 17 29 35 35 24 8 31 19 42 62 9 37 20 55 36 63 29 13 30 53 2 75 -16 13 -18 22 -12 40 13 35 -7 114 -27 106 -8 -4 -32 -9 -53 -12 l-37 -4 17 31 c12 20 14 34 8 39 -27 19 -38 70 -36 163 2 93 2 96 -23 113 -33 21 -33 34 0 46 30 12 23 30 -11 30 -45 0 -37 33 10 42 11 2 25 14 32 27 6 14 23 31 38 38 26 14 26 37 0 27 -43 -17 -71 39 -35 71 16 15 19 26 14 53 -6 33 -6 35 18 29 50 -13 78 65 32 85 -42 18 -42 17 -6 47 37 30 38 75 2 86 -11 3 -22 21 -27 43 -7 29 -14 38 -36 42 -16 3 -33 15 -40 29 -8 16 -32 30 -75 45 -35 12 -68 29 -73 39 -6 9 -19 17 -30 17 -11 0 -33 9 -48 21 -45 33 -216 45 -401 29 -126 -12 -210 -34 -210 -56 0 -7 -12 -16 -27 -20 -144 -32 -251 -77 -264 -112 -5 -12 -17 -25 -26 -29 -30 -11 -93 -64 -93 -78 0 -21 -138 -155 -153 -150 -13 6 -77 -45 -77 -61 0 -5 14 -15 30 -21 38 -14 43 -48 6 -39 -37 9 -56 -3 -56 -34 0 -15 -7 -41 -15 -56 -8 -16 -15 -42 -15 -57 0 -25 -11 -54 -41 -107 -21 -36 -27 -60 -34 -142 -6 -84 -6 -88 13 -88 26 0 62 -45 62 -76 0 -13 5 -24 10 -24 6 0 21 -10 33 -23 13 -12 35 -30 50 -39 17 -12 28 -31 33 -55 12 -67 64 -130 115 -140 36 -7 45 -19 29 -38 -19 -22 -5 -44 41 -64 23 -10 51 -28 63 -39 11 -11 45 -42 74 -68 28 -26 52 -52 52 -58 0 -6 20 -34 44 -61 l45 -50 24 29 c16 20 29 27 40 23 19 -7 23 -32 7 -42 -6 -4 -1 -14 12 -25 34 -28 6 -34 -94 -20 -182 25 -200 28 -211 39 -6 6 -22 11 -37 11 -14 0 -36 6 -51 13 -14 8 -46 21 -72 30 -26 9 -59 25 -74 36 -14 12 -36 21 -48 21 -12 0 -30 9 -41 21 -10 12 -32 28 -49 36 -278 143 -534 501 -538 754 -4 239 266 648 510 772 17 9 33 21 35 26 1 4 30 23 63 40 33 17 67 35 75 40 8 6 38 19 65 31 28 12 68 30 90 40 22 11 59 24 82 30 23 6 54 17 70 25 15 8 35 15 44 15 8 0 35 7 60 15 95 32 446 43 656 20z m-1347 -49 c0 -16 -21 -26 -55 -26 -26 0 -40 14 -30 30 10 16 85 13 85 -4z m5887 -157 c45 -18 188 -47 317 -64 227 -30 548 -147 732 -267 92 -60 196 -163 192 -189 -9 -65 -446 -19 -633 65 -16 8 -57 26 -90 41 -112 50 -185 95 -400 246 -27 19 -77 50 -110 69 -88 49 -113 83 -72 100 30 12 31 12 64 -1z m-4542 -159 c205 -44 254 -71 241 -129 -4 -14 -9 -55 -13 -91 -10 -112 -43 -123 -166 -58 l-82 43 -115 0 c-109 0 -118 -2 -163 -29 -60 -36 -125 -100 -155 -154 l-23 -41 22 -12 c15 -8 53 -9 118 -5 189 12 348 11 366 -4 20 -17 11 -128 -13 -147 -12 -10 -72 -11 -256 -6 -221 6 -243 5 -259 -11 -21 -22 -22 -55 -1 -85 l17 -23 241 7 c275 8 271 9 279 -69 9 -90 -46 -103 -330 -75 -176 17 -210 -20 -108 -118 133 -129 333 -142 511 -32 61 37 107 13 93 -51 -7 -31 -5 -50 11 -90 35 -88 34 -89 -95 -125 -33 -9 -80 -23 -104 -31 -104 -33 -334 -11 -451 43 -135 62 -300 247 -300 336 0 33 -33 47 -112 47 -104 0 -122 16 -116 101 6 78 14 85 98 82 93 -3 124 23 79 68 -19 19 -29 21 -77 16 -78 -8 -89 0 -97 78 -10 88 -3 95 94 95 95 0 90 -4 141 114 72 163 189 277 345 334 86 31 286 43 380 22z m-3588 -387 c48 -31 93 -66 93 -75 0 -20 -42 -5 -67 24 -16 17 -36 40 -45 50 -22 23 -16 23 19 1z m8746 -227 c15 -4 27 -13 27 -20 0 -36 66 -86 112 -86 30 0 52 -6 68 -20 17 -15 31 -18 64 -14 38 6 43 4 54 -20 15 -33 54 -35 74 -3 14 19 23 22 82 20 76 -2 86 -6 86 -37 0 -12 14 -35 30 -51 29 -27 41 -75 20 -75 -5 0 -10 -7 -10 -15 0 -8 4 -15 9 -15 16 0 20 -29 6 -43 -19 -20 -27 -227 -9 -234 21 -8 24 -31 7 -49 -11 -11 -16 -30 -14 -58 4 -91 -148 -178 -206 -117 -19 20 -143 24 -150 5 -15 -41 -43 -41 -43 0 0 12 -11 33 -25 46 -14 13 -25 32 -25 42 0 10 -5 27 -12 37 -9 15 -9 25 0 45 11 24 9 27 -23 41 -35 14 -35 15 -34 67 2 51 -17 108 -41 123 -5 3 -10 35 -10 71 0 68 -8 90 -46 137 -13 16 -24 37 -24 48 0 11 -11 42 -25 69 -14 27 -25 55 -25 62 0 21 29 58 43 53 6 -2 24 -6 40 -9z m-4075 -859 c2 -19 -1 -27 -13 -27 -19 0 -30 24 -21 46 9 23 31 11 34 -19z"/> <path d="M10512 6903 c2 -17 9 -28 18 -28 9 0 16 11 18 28 3 22 -1 27 -18 27 -17 0 -21 -5 -18 -27z"/> <path d="M11785 5730 c-86 -11 -192 -38 -218 -54 -12 -8 -43 -17 -69 -20 -26 -4 -50 -11 -53 -16 -3 -5 -21 -17 -40 -26 -19 -9 -35 -20 -35 -25 0 -5 -8 -9 -18 -9 -10 0 -28 -11 -40 -25 -12 -14 -28 -25 -36 -25 -8 0 -24 -12 -35 -27 -11 -16 -45 -53 -76 -83 -115 -112 -135 -134 -124 -145 8 -7 16 -3 26 13 9 12 20 22 25 22 13 0 138 124 138 137 0 6 14 15 31 18 22 5 35 16 42 36 8 19 20 30 40 35 15 3 31 12 34 20 3 8 19 14 39 14 23 0 37 6 44 20 6 10 29 25 53 31 23 7 49 18 57 24 8 7 44 15 79 19 35 3 69 10 75 15 33 27 387 2 421 -30 5 -5 29 -9 53 -9 44 0 204 -46 278 -81 65 -30 120 -19 62 12 -13 7 -27 17 -33 24 -5 6 -28 18 -50 27 -22 9 -70 28 -107 43 -37 15 -94 31 -125 35 -32 4 -69 12 -83 17 -34 14 -280 23 -355 13z"/> <path d="M3840 5718 c-14 -5 -51 -14 -84 -18 -61 -9 -186 -57 -186 -72 0 -13 47 -10 84 6 18 7 65 19 104 26 47 8 72 17 76 27 9 22 336 10 349 -13 5 -9 24 -14 55 -14 28 0 62 -8 85 -20 21 -11 56 -20 80 -20 31 0 49 -6 62 -20 10 -11 31 -20 47 -20 16 0 31 -6 34 -15 4 -8 18 -15 33 -14 24 0 25 1 7 12 -11 7 -27 20 -37 29 -10 9 -34 20 -53 23 -19 4 -37 13 -40 21 -3 8 -15 14 -27 14 -12 0 -36 9 -53 19 -85 52 -448 85 -536 49z"/> <path d="M3960 5529 c-25 -4 -77 -13 -116 -18 -233 -33 -487 -218 -594 -432 -17 -35 -36 -73 -42 -84 -6 -10 -17 -44 -25 -75 -8 -30 -18 -71 -23 -90 -19 -69 -12 -214 15 -317 31 -117 65 -213 76 -213 4 0 11 -10 15 -22 10 -34 99 -142 151 -184 27 -21 50 -41 53 -44 34 -41 205 -131 290 -152 187 -48 301 -51 453 -12 330 84 540 298 627 638 69 271 -57 637 -274 793 -28 21 -53 40 -56 43 -44 48 -213 136 -275 145 -28 4 -88 13 -134 21 -46 8 -86 13 -90 13 -3 -1 -26 -5 -51 -10z m95 -359 c22 -12 63 -22 92 -24 29 -2 64 -11 78 -20 15 -10 33 -15 41 -12 8 3 19 -4 26 -17 6 -12 46 -56 88 -97 84 -83 93 -102 92 -205 -1 -40 5 -73 18 -100 22 -47 12 -131 -21 -173 -10 -14 -19 -31 -19 -38 0 -23 -23 -64 -35 -64 -7 0 -20 -9 -30 -20 -10 -11 -26 -20 -36 -20 -36 0 -49 -11 -43 -36 5 -21 2 -24 -36 -30 -31 -5 -44 -13 -51 -30 -11 -29 -25 -31 -34 -4 -9 29 -26 25 -62 -15 -35 -38 -67 -44 -99 -20 -10 8 -37 15 -59 15 -28 0 -46 6 -58 20 -20 23 -62 26 -71 5 -9 -25 -55 -18 -68 10 -8 18 -19 25 -38 25 -20 0 -38 12 -64 43 -19 23 -44 51 -54 62 -11 11 -22 32 -25 47 -4 15 -16 30 -28 33 -17 6 -20 13 -15 36 3 17 1 31 -7 36 -37 24 -48 140 -17 168 16 14 20 31 20 79 0 64 14 87 94 153 15 12 26 32 26 45 0 43 86 117 145 124 28 4 52 10 55 14 26 35 135 41 195 10z"/> <path d="M11850 5529 c-19 -5 -62 -13 -95 -19 -62 -10 -168 -49 -188 -69 -6 -6 -15 -11 -21 -11 -38 0 -242 -169 -301 -250 -154 -209 -180 -562 -60 -800 124 -247 229 -338 520 -453 228 -91 533 -44 774 118 295 198 403 639 244 999 -72 164 -240 343 -389 416 -129 63 -371 97 -484 69z m4 -355 c9 -3 16 -13 16 -21 0 -9 6 -12 18 -9 32 11 226 8 262 -3 19 -6 43 -20 55 -30 11 -11 42 -39 68 -63 37 -33 47 -48 42 -65 -6 -24 8 -37 40 -38 18 0 21 -10 30 -90 6 -49 19 -107 29 -129 17 -38 17 -39 -5 -59 -21 -19 -21 -21 -3 -34 10 -7 21 -13 26 -13 20 0 6 -31 -18 -40 -20 -8 -25 -15 -21 -31 4 -14 -2 -28 -19 -44 -13 -12 -24 -32 -24 -43 0 -15 -8 -24 -25 -28 -14 -3 -25 -12 -25 -20 0 -8 -15 -31 -34 -52 -19 -20 -36 -48 -37 -62 -4 -27 -39 -42 -39 -17 0 8 -7 21 -16 28 -16 13 -35 -1 -46 -32 -2 -5 -59 -11 -128 -14 -69 -3 -132 -8 -141 -11 -11 -3 -20 5 -29 26 -16 39 -28 38 -67 -5 -18 -19 -42 -35 -53 -35 -28 0 -25 14 6 28 42 20 31 78 -13 74 -18 -2 -33 1 -33 7 0 5 -21 29 -46 53 -29 28 -44 48 -41 60 3 9 -4 27 -14 39 -10 12 -19 26 -19 31 0 16 -22 8 -41 -14 -35 -42 -47 8 -17 69 9 18 8 27 -5 41 -10 10 -17 26 -17 34 0 9 -7 21 -16 29 -27 22 1 138 47 198 18 22 18 26 4 47 -18 27 7 60 65 84 17 7 61 42 97 77 36 35 71 62 77 60 6 -2 25 2 41 9 34 15 47 16 69 8z"/> <path d="M3281 5492 c-24 -20 -80 -72 -124 -114 -45 -43 -84 -78 -89 -78 -8 0 -118 -163 -118 -175 0 -4 -14 -23 -30 -42 -67 -76 -127 -221 -141 -340 -49 -411 108 -781 438 -1036 34 -26 64 -47 67 -47 3 0 22 -12 43 -26 128 -88 319 -155 535 -190 517 -82 1122 249 1308 716 131 329 102 715 -67 882 -30 30 -46 19 -19 -11 9 -10 16 -27 16 -40 0 -12 10 -59 22 -104 70 -263 -5 -612 -182 -852 -389 -527 -1169 -618 -1680 -195 -159 131 -319 395 -360 594 -28 137 -27 309 2 431 26 111 118 306 155 328 7 4 13 19 13 33 0 14 7 27 18 31 17 6 61 52 62 65 0 9 50 57 80 78 39 26 104 81 118 98 35 46 -10 42 -67 -6z"/> <path d="M4750 5439 c0 -5 7 -12 15 -15 8 -4 15 -12 15 -19 0 -11 84 -89 118 -109 24 -14 11 15 -24 54 -41 45 -124 105 -124 89z"/> <path d="M10970 5221 c0 -5 -29 -40 -65 -77 -36 -36 -68 -78 -71 -93 -4 -14 -15 -39 -24 -56 -66 -111 -89 -264 -71 -488 16 -215 75 -376 189 -521 280 -358 607 -521 1042 -521 192 0 214 3 395 57 226 66 409 187 590 388 246 275 317 756 162 1094 -31 65 -128 165 -127 129 1 -12 34 -103 53 -143 50 -109 64 -359 28 -507 -55 -230 -132 -379 -281 -546 -33 -38 -166 -147 -178 -147 -5 0 -14 -6 -20 -13 -31 -37 -243 -126 -385 -162 -183 -47 -497 -26 -624 40 -15 8 -33 15 -40 15 -7 0 -32 10 -55 22 -233 117 -345 217 -492 434 -196 289 -218 838 -42 1024 28 28 45 80 27 80 -6 0 -11 -4 -11 -9z"/> <path d="M4695 3003 c-62 -35 -75 -60 -75 -150 0 -258 387 -306 407 -51 13 160 -188 281 -332 201z"/> <path d="M5903 2988 c-15 -17 -8 -256 13 -453 10 -91 -29 -105 -107 -37 -91 78 -270 116 -339 71 -14 -9 -38 -19 -54 -23 -134 -33 -241 -188 -272 -396 -61 -401 113 -731 409 -772 117 -16 210 5 290 66 44 34 69 33 111 -4 40 -36 121 -54 209 -48 79 6 103 29 100 101 -13 461 -14 716 -4 1040 16 486 26 463 -208 469 -115 3 -134 1 -148 -14z m-125 -749 c183 -55 172 -428 -15 -515 -206 -95 -359 123 -263 377 36 98 149 174 226 153 7 -1 30 -8 52 -15z"/> <path d="M8055 2981 c-27 -4 -63 -15 -80 -24 -16 -9 -38 -17 -48 -17 -17 0 -74 -28 -135 -67 -155 -100 -210 -332 -120 -513 83 -168 210 -256 468 -326 247 -66 272 -76 298 -114 25 -37 24 -93 -3 -135 -39 -63 -225 -96 -336 -61 -24 8 -55 17 -69 20 -14 3 -63 37 -108 76 -95 79 -112 83 -175 43 -67 -43 -72 -47 -116 -71 -70 -39 -49 -104 71 -217 124 -118 256 -176 438 -196 410 -44 680 140 680 464 0 244 -185 419 -530 501 -237 56 -287 82 -297 152 -15 115 136 181 319 140 74 -17 114 -41 190 -118 43 -44 88 -39 179 21 99 65 113 81 106 126 -15 90 -229 256 -362 281 -22 4 -50 13 -61 21 -26 16 -232 26 -309 14z"/> <path d="M3314 2937 c-5 -9 -6 -67 -1 -129 4 -62 6 -390 5 -729 -3 -604 -3 -617 17 -639 37 -41 68 -50 180 -50 176 0 183 9 166 211 -26 309 -22 319 116 319 110 0 115 -5 203 -210 139 -326 127 -314 315 -318 197 -6 216 23 121 182 -51 86 -75 128 -121 215 -11 20 -30 51 -43 68 -63 87 -60 144 8 182 149 84 225 306 176 515 -40 168 -168 297 -366 369 -76 27 -762 40 -776 14z m720 -341 c66 -32 86 -66 86 -146 0 -115 -61 -181 -192 -206 -92 -18 -244 -19 -254 -2 -4 7 -7 89 -6 183 3 220 -6 210 181 202 115 -5 141 -10 185 -31z"/> <path d="M9255 2878 c-16 -5 -46 -18 -66 -29 -21 -10 -56 -21 -78 -25 -23 -4 -53 -16 -68 -27 l-25 -20 7 -110 c8 -128 9 -127 -83 -127 -76 0 -81 -8 -81 -131 0 -113 40 -179 108 -179 60 0 60 0 63 -295 4 -310 10 -337 93 -432 75 -86 150 -115 306 -121 186 -6 219 15 219 141 0 83 -13 124 -52 164 -32 33 -33 34 -98 27 -60 -6 -69 -4 -94 17 l-27 24 -3 218 c-2 268 -7 258 105 255 110 -2 123 10 128 128 5 142 -26 184 -140 184 -83 0 -104 15 -95 69 21 122 19 180 -5 215 -19 29 -69 69 -81 65 -1 -1 -16 -6 -33 -11z"/> <path d="M11177 2870 c-15 -5 -47 -18 -70 -29 -24 -12 -54 -21 -68 -21 -68 0 -90 -62 -67 -187 15 -81 9 -87 -90 -93 l-77 -5 3 -100 c4 -127 27 -167 112 -200 l55 -21 5 -284 5 -285 34 -62 c76 -142 174 -195 368 -201 190 -6 222 20 209 164 -13 141 -45 178 -145 168 -63 -6 -69 -5 -99 21 l-32 27 0 224 c0 258 -6 244 105 244 107 0 125 23 125 160 0 64 -4 82 -22 106 -32 42 -36 44 -114 44 -98 0 -100 3 -85 133 19 169 -31 233 -152 197z"/> <path d="M6840 2580 c-198 -45 -310 -130 -390 -295 l-50 -103 0 -174 c0 -191 8 -229 73 -352 151 -284 556 -373 846 -186 122 77 153 162 82 217 -35 27 -175 93 -196 93 -13 0 -53 -20 -89 -44 -161 -108 -408 -35 -372 109 10 41 34 43 387 34 412 -10 385 -19 382 128 -4 260 -153 465 -398 547 -110 37 -191 45 -275 26z m215 -301 c84 -23 143 -121 93 -152 -36 -22 -361 -23 -383 -1 -53 53 112 184 215 169 19 -3 53 -10 75 -16z"/> <path d="M10129 2581 c-26 -4 -53 -12 -60 -18 -8 -6 -30 -14 -49 -18 -74 -15 -169 -73 -244 -147 -27 -27 -28 -31 -15 -55 39 -72 160 -153 229 -153 19 0 59 16 100 41 136 81 299 52 326 -58 14 -55 -12 -64 -217 -67 -198 -4 -258 -18 -357 -80 -206 -130 -127 -547 121 -633 109 -37 285 -17 362 42 50 38 77 40 112 11 43 -36 77 -47 168 -52 141 -9 160 18 145 203 -5 59 -9 203 -10 320 -1 238 -13 310 -70 423 -90 178 -306 274 -541 241z m262 -712 c61 -61 -111 -209 -243 -209 -88 0 -125 71 -78 148 43 70 269 113 321 61z"/> <path d="M12009 2581 c-26 -4 -53 -12 -60 -18 -8 -6 -30 -14 -49 -18 -72 -15 -138 -65 -191 -143 -48 -71 -54 -211 -14 -301 62 -137 248 -239 508 -276 116 -17 133 -97 30 -149 -81 -41 -226 -3 -314 81 -64 61 -56 59 -172 30 -60 -15 -107 -49 -107 -76 0 -50 108 -187 192 -244 179 -123 495 -127 667 -9 104 71 148 165 137 292 -18 200 -193 328 -516 376 -82 12 -110 29 -110 66 0 119 210 132 333 22 39 -36 40 -36 111 -32 118 8 188 57 172 121 -12 49 -153 178 -237 216 -135 61 -250 80 -380 62z"/> <path d="M4646 2532 c-2 -4 -6 -244 -7 -534 -3 -510 -2 -528 17 -549 40 -45 87 -59 193 -59 127 0 156 18 155 97 -1 26 -5 172 -10 323 -5 151 -6 358 -2 459 11 264 6 271 -209 271 -72 0 -134 -3 -137 -8z"/> </g> </svg>
